<?xml version="1.0" standalone="no"?>
<!DOCTYPE svg PUBLIC "-//W3C//DTD SVG 20010904//EN"
 "http://www.w3.org/TR/2001/REC-SVG-20010904/DTD/svg10.dtd">
<svg version="1.0" xmlns="http://www.w3.org/2000/svg"
 width="612.000000pt" height="612.000000pt" viewBox="0 0 612.000000 612.000000"
 preserveAspectRatio="xMidYMid meet">
<metadata>
Created by potrace 1.14, written by Peter Selinger 2001-2017
</metadata>
<g transform="translate(0.000000,612.000000) scale(0.100000,-0.100000)"
fill="#000000" stroke="none">
<path d="M2229 3926 c-2 -2 -3 -367 -1 -810 l2 -805 146 -116 c80 -65 147
-115 150 -113 2 3 4 273 4 600 1 328 3 598 6 601 3 3 120 -87 260 -199 141
-112 260 -204 264 -204 5 0 192 147 417 326 l408 327 5 198 c3 110 2 198 -2
197 -5 -2 -192 -151 -418 -331 l-410 -328 -403 322 c-221 177 -407 326 -413
330 -6 5 -13 7 -15 5z"/>
<path d="M3475 3059 c-225 -181 -414 -328 -420 -325 -6 2 -94 70 -195 151
-102 81 -191 152 -197 158 -10 7 -13 -31 -13 -185 l0 -195 76 -59 c42 -33 81
-64 88 -69 6 -6 64 -53 129 -104 82 -65 121 -90 130 -83 48 37 423 337 427
342 10 11 79 60 84 60 3 0 7 -151 8 -335 l3 -335 70 55 c39 31 105 84 147 118
l78 62 0 538 c0 295 -1 537 -2 536 -2 0 -187 -149 -413 -330z"/>
</g>
</svg>
